<svg width="67" height="67" viewBox="0 0 67 67" fill="none" xmlns="http://www.w3.org/2000/svg">
<path fill-rule="evenodd" clip-rule="evenodd" d="M37.8489 15.4497C35.4186 13.1177 31.5814 13.1177 29.151 15.4497L16.2356 27.8429C15.9191 28.1465 15.7063 28.542 15.6272 28.9734C14.0802 37.4094 13.966 46.0458 15.2894 54.5198L15.6035 56.5312H23.9128V39.1912C23.9128 38.0349 24.8502 37.0975 26.0065 37.0975H40.9934C42.1497 37.0975 43.0871 38.0349 43.0871 39.1912V56.5312H51.3964L51.7105 54.5198C53.0339 46.0458 52.9197 37.4094 51.3728 28.9734C51.2937 28.542 51.0808 28.1465 50.7644 27.8429L37.8489 15.4497ZM26.2518 12.4282C30.3023 8.5415 36.6976 8.5415 40.7482 12.4282L53.6636 24.8214C54.6144 25.7337 55.2539 26.9221 55.4916 28.2181C57.1234 37.1169 57.2439 46.2271 55.8479 55.1659L55.3433 58.3972C55.1346 59.7335 53.9836 60.7187 52.6311 60.7187H40.9934C39.837 60.7187 38.8996 59.7813 38.8996 58.6249V41.285H28.1003V58.6249C28.1003 59.7813 27.1629 60.7187 26.0065 60.7187H14.3689C13.0163 60.7187 11.8654 59.7335 11.6567 58.3972L11.1521 55.1659C9.75608 46.2271 9.87654 37.1169 11.5083 28.2181C11.746 26.9221 12.3855 25.7337 13.3363 24.8214L26.2518 12.4282Z" fill="white"/>
</svg>
