<svg width="67" height="67" viewBox="0 0 67 67" fill="none" xmlns="http://www.w3.org/2000/svg">
<path fill-rule="evenodd" clip-rule="evenodd" d="M21.6354 20.9373C21.6354 14.3847 26.9474 9.07275 33.5 9.07275C40.0526 9.07275 45.3646 14.3847 45.3646 20.9373C45.3646 27.49 40.0526 32.8019 33.5 32.8019C26.9474 32.8019 21.6354 27.49 21.6354 20.9373ZM33.5 13.2603C29.26 13.2603 25.8229 16.6974 25.8229 20.9373C25.8229 25.1773 29.26 28.6144 33.5 28.6144C37.7399 28.6144 41.1771 25.1773 41.1771 20.9373C41.1771 16.6974 37.7399 13.2603 33.5 13.2603Z" fill="white"/>
<path fill-rule="evenodd" clip-rule="evenodd" d="M22.3333 41.1769C18.8643 41.1769 16.0521 43.9891 16.0521 47.4582V50.7755C16.0521 50.826 16.0887 50.869 16.1385 50.8772C27.6367 52.7544 39.3632 52.7544 50.8614 50.8772C50.9113 50.869 50.9479 50.826 50.9479 50.7755V47.4582C50.9479 43.9891 48.1357 41.1769 44.6666 41.1769H43.7151C43.6415 41.1769 43.5684 41.1886 43.4984 41.2114L41.0822 42.0004C36.1554 43.6091 30.8446 43.6091 25.9178 42.0004L23.5015 41.2114C23.4316 41.1886 23.3585 41.1769 23.2849 41.1769H22.3333ZM11.8646 47.4582C11.8646 41.6764 16.5516 36.9894 22.3333 36.9894H23.2849C23.7999 36.9894 24.3117 37.0709 24.8013 37.2307L27.2176 38.0197C31.2998 39.3527 35.7002 39.3527 39.7824 38.0197L42.1986 37.2307C42.6882 37.0709 43.2 36.9894 43.7151 36.9894H44.6666C50.4484 36.9894 55.1354 41.6764 55.1354 47.4582V50.7755C55.1354 52.8782 53.6115 54.6711 51.5362 55.01C39.5911 56.9602 27.4088 56.9602 15.4638 55.01C13.3885 54.6711 11.8646 52.8782 11.8646 50.7755V47.4582Z" fill="white"/>
</svg>
